<?xml version="1.0" encoding="UTF-8" standalone="no"?>
<!-- Created with Inkscape (http://www.inkscape.org/) -->

<svg
   width="32"
   height="32"
   viewBox="0 0 32 32"
   version="1.1"
   id="svg1"
   inkscape:version="1.4.2 (f4327f4, 2025-05-13)"
   sodipodi:docname="logoGRK.svg"
   xmlns:inkscape="http://www.inkscape.org/namespaces/inkscape"
   xmlns:sodipodi="http://sodipodi.sourceforge.net/DTD/sodipodi-0.dtd"
   xmlns="http://www.w3.org/2000/svg"
   xmlns:svg="http://www.w3.org/2000/svg">
  <sodipodi:namedview
     id="namedview1"
     pagecolor="#505050"
     bordercolor="#ffffff"
     borderopacity="1"
     inkscape:showpageshadow="0"
     inkscape:pageopacity="0"
     inkscape:pagecheckerboard="1"
     inkscape:deskcolor="#505050"
     inkscape:document-units="px"
     inkscape:zoom="16"
     inkscape:cx="1.90625"
     inkscape:cy="23.34375"
     inkscape:window-width="1920"
     inkscape:window-height="991"
     inkscape:window-x="-9"
     inkscape:window-y="-9"
     inkscape:window-maximized="1"
     inkscape:current-layer="layer1">
    <inkscape:page
       x="0"
       y="0"
       width="32"
       height="32"
       id="page2"
       margin="0"
       bleed="0" />
  </sodipodi:namedview>
  <defs
     id="defs1" />
  <g
     inkscape:label="Warstwa 1"
     inkscape:groupmode="layer"
     id="layer1">
    <path
       id="path1"
       style="fill:#bf11db;fill-opacity:1;stroke:#9d0bcc;stroke-width:0.2;stroke-linecap:round;stroke-linejoin:bevel;stroke-dasharray:0.2, 0.2;stroke-dashoffset:0;stroke-opacity:1;paint-order:stroke markers fill"
       d="m 13.169922,3.4394531 c -0.02495,0 -5.360571,3.0819072 -5.373047,3.1035157 -0.01248,0.021609 -0.01248,6.1834692 0,6.2050782 h 0.00195 c 0.00502,0.0023 0.017562,0.0089 0.035156,0.01953 -0.02346,0.01416 -0.036519,0.02241 -0.037109,0.02344 -0.01248,0.02161 -0.01248,6.183469 0,6.205078 0.01248,0.02161 5.348096,3.103515 5.373047,3.103515 0.02495,0 5.360571,-3.081906 5.373047,-3.103515 0.0065,-0.01134 0.01003,-1.712058 0.0098,-3.330078 h -0.625 v -0.002 H 15.736328 V 16.3125 h 2.185547 c -7.62e-4,1.058453 -0.0034,1.947391 -0.0078,1.955078 -0.01102,0.01908 -4.72211,2.740234 -4.74414,2.740234 -0.02203,0 -4.7331208,-2.721154 -4.7441408,-2.740234 -0.01102,-0.01908 -0.01102,-5.459436 0,-5.478516 5.2e-4,-9.09e-4 0.012484,-0.0071 0.033203,-0.01953 -0.02072,-0.01258 -0.032683,-0.01865 -0.033203,-0.01953 -0.01102,-0.01908 -0.01102,-5.4594346 0,-5.4785156 0.01102,-0.01908 4.7221108,-2.7402344 4.7441408,-2.7402344 0.02203,0 4.733121,2.7211544 4.74414,2.7402344 0.0053,0.0092 0.0076,1.2839625 0.0078,2.6015625 h 0.630859 c 3.23e-4,-1.61802 -0.0032,-3.3187423 -0.0098,-3.3300781 -0.01248,-0.021609 -5.348095,-3.1035158 -5.373047,-3.1035157 z m 5.660156,6.4609375 c -0.02495,0 -5.360567,3.0819054 -5.373047,3.1035154 -0.0066,0.01134 -0.01006,1.712058 -0.0098,3.330078 h 0.630859 c 2e-4,-1.3176 0.0025,-2.592362 0.0078,-2.601562 0.01102,-0.01908 4.72211,-2.740234 4.74414,-2.740234 0.02203,0 4.733121,2.721154 4.744141,2.740234 0.01102,0.01908 0.01102,5.459436 0,5.478516 -5.2e-4,8.79e-4 -0.01248,0.007 -0.0332,0.01953 0.02072,0.01248 0.03268,0.01862 0.0332,0.01953 0.01102,0.01908 0.01102,5.459436 0,5.478516 -0.01102,0.01908 -4.722111,2.740234 -4.744141,2.740234 -0.02203,0 -4.73312,-2.721155 -4.74414,-2.740234 -0.0053,-0.0092 -0.0076,-1.283933 -0.0078,-2.601563 h -0.630859 c -2.9e-4,1.61802 0.0033,3.318738 0.0098,3.330078 0.01248,0.02161 5.348097,3.103516 5.373047,3.103516 0.02495,0 5.360567,-3.081906 5.373047,-3.103516 0.01248,-0.02161 0.01248,-6.183468 0,-6.205078 -5.9e-4,-10e-4 -0.01365,-0.0093 -0.03711,-0.02344 0.02346,-0.01418 0.03652,-0.0205 0.03711,-0.02148 0.01248,-0.02161 0.01248,-6.183468 0,-6.205078 -0.01248,-0.02161 -5.348097,-3.1015624 -5.373047,-3.1015624 z" />
  </g>
</svg>
